<svg xmlns="http://www.w3.org/2000/svg" xmlns:xlink="http://www.w3.org/1999/xlink" width="500" zoomAndPan="magnify" viewBox="0 0 375 374.999991" height="500" preserveAspectRatio="xMidYMid meet" version="1.0"><defs><g/><clipPath id="ac6c7d34d4"><path d="M 84 47.308594 L 291 47.308594 L 291 260.308594 L 84 260.308594 Z M 84 47.308594 " clip-rule="nonzero"/></clipPath></defs><g clip-path="url(#ac6c7d34d4)"><path fill="#ffa0d9" d="M 187.601562 47.308594 C 186.164062 47.257812 184.957031 48.375 184.894531 49.8125 L 180.402344 173.5625 L 168.546875 163.355469 C 167.730469 162.664062 166.503906 162.769531 165.8125 163.585938 C 165.347656 164.140625 165.226562 164.898438 165.5 165.566406 L 171.964844 181.574219 L 154.738281 180.164062 C 153.667969 180.097656 152.746094 180.910156 152.675781 181.980469 C 152.632812 182.6875 152.976562 183.359375 153.566406 183.738281 L 168.210938 192.890625 L 153.433594 201.855469 C 152.511719 202.40625 152.21875 203.601562 152.769531 204.523438 C 153.144531 205.148438 153.839844 205.503906 154.566406 205.457031 L 171.800781 204.265625 L 165.125 220.214844 C 164.710938 221.203125 165.167969 222.339844 166.152344 222.761719 C 166.832031 223.050781 167.609375 222.925781 168.171875 222.457031 L 178.960938 213.429688 L 177.808594 245.03125 C 151.035156 240.128906 130.644531 215.378906 130.644531 185.5 C 130.644531 171.136719 135.453125 157.246094 144.203125 146.3125 C 146.445312 143.886719 147.636719 140.691406 147.644531 137.386719 C 147.644531 134.191406 146.503906 131.09375 144.390625 128.699219 C 135.523438 117.730469 130.648438 103.742188 130.644531 89.273438 C 130.644531 79.882812 132.753906 70.710938 136.625 62.402344 C 136.886719 61.925781 136.992188 61.363281 136.992188 60.816406 C 136.992188 59.007812 135.523438 57.535156 133.710938 57.535156 C 132.976562 57.535156 132.242188 57.765625 131.660156 58.226562 C 121.882812 64.953125 113.238281 73.394531 106.082031 83.191406 C 102.859375 87.109375 101.09375 92.015625 101.09375 97.089844 C 101.09375 98.886719 101.285156 100.726562 101.726562 102.46875 C 105.050781 117.128906 110.125 131.34375 116.796875 144.832031 C 118.222656 147.554688 114.367188 149.902344 112.597656 147.382812 C 104.335938 135.972656 97.164062 123.820312 91.195312 111.039062 C 86.632812 123.632812 84.292969 137.007812 84.292969 150.5 C 84.292969 151.097656 84.332031 151.699219 84.339844 152.292969 C 84.339844 155.671875 85.144531 159.109375 86.648438 162.136719 C 88.402344 165.925781 90.28125 169.660156 92.421875 173.242188 C 97.398438 181.554688 103.402344 189.222656 110.226562 196.105469 C 111.703125 197.445312 109.792969 199.707031 108.222656 198.46875 C 101.109375 193.359375 94.484375 187.605469 88.433594 181.257812 C 101.28125 228.09375 141.640625 260.285156 187.5 260.285156 C 233.359375 260.285156 273.714844 228.09375 286.566406 181.269531 C 280.515625 187.613281 273.894531 193.371094 266.777344 198.476562 C 265.210938 199.714844 263.296875 197.457031 264.773438 196.113281 C 271.601562 189.230469 277.597656 181.5625 282.578125 173.253906 C 284.722656 169.671875 286.605469 165.933594 288.351562 162.144531 C 289.859375 159.121094 290.660156 155.683594 290.660156 152.304688 C 290.671875 151.703125 290.710938 151.105469 290.710938 150.507812 C 290.710938 137.011719 288.371094 123.640625 283.808594 111.050781 C 277.84375 123.828125 270.664062 135.984375 262.402344 147.390625 C 260.636719 149.914062 256.777344 147.566406 258.207031 144.839844 C 264.882812 131.355469 269.953125 117.140625 273.273438 102.476562 C 273.714844 100.734375 273.910156 98.894531 273.910156 97.101562 C 273.910156 92.027344 272.140625 87.113281 268.917969 83.203125 C 261.757812 73.40625 253.113281 64.960938 243.335938 58.234375 C 242.761719 57.777344 242.023438 57.542969 241.285156 57.542969 C 239.472656 57.542969 238.003906 59.015625 238.003906 60.824219 C 238.003906 61.371094 238.105469 61.933594 238.371094 62.414062 C 242.246094 70.71875 244.355469 79.890625 244.355469 89.28125 C 244.355469 103.746094 239.472656 117.734375 230.605469 128.707031 C 228.492188 131.101562 227.355469 134.199219 227.355469 137.394531 C 227.355469 140.703125 228.550781 143.894531 230.796875 146.320312 C 239.542969 157.257812 244.355469 171.148438 244.355469 185.507812 C 244.355469 215.390625 223.960938 240.136719 197.1875 245.039062 L 196.054688 213.785156 L 206.445312 222.722656 C 207.265625 223.414062 208.492188 223.304688 209.179688 222.480469 C 209.636719 221.933594 209.757812 221.179688 209.492188 220.519531 L 203.027344 204.503906 L 220.242188 205.941406 C 221.3125 206.007812 222.238281 205.195312 222.304688 204.125 C 222.355469 203.417969 222.011719 202.746094 221.414062 202.367188 L 206.78125 193.191406 L 221.558594 184.226562 C 222.46875 183.664062 222.761719 182.46875 222.195312 181.550781 C 221.820312 180.945312 221.140625 180.589844 220.425781 180.636719 L 203.191406 181.816406 L 209.867188 165.867188 C 210.277344 164.875 209.808594 163.742188 208.816406 163.332031 C 208.144531 163.050781 207.378906 163.171875 206.820312 163.636719 L 194.609375 173.855469 L 190.109375 49.828125 C 190.050781 48.453125 188.960938 47.363281 187.601562 47.308594 Z M 187.601562 47.308594 " fill-opacity="1" fill-rule="nonzero"/></g><g fill="#ffa0d9" fill-opacity="1"><g transform="translate(42.807657, 313.478298)"><g><path d="M 8.9375 -8.9375 L 8.9375 -23.21875 L 14.0625 -23.21875 C 16.070312 -23.21875 17.769531 -22.523438 19.15625 -21.140625 C 20.53125 -19.742188 21.21875 -18.054688 21.21875 -16.078125 C 21.21875 -14.097656 20.519531 -12.410156 19.125 -11.015625 C 17.726562 -9.628906 16.039062 -8.9375 14.0625 -8.9375 Z M 0 -32.140625 L 0 0 L 14.0625 0 C 18.5 0 22.285156 -1.566406 25.421875 -4.703125 C 28.566406 -7.835938 30.140625 -11.628906 30.140625 -16.078125 C 30.140625 -20.515625 28.566406 -24.300781 25.421875 -27.4375 C 22.285156 -30.570312 18.5 -32.140625 14.0625 -32.140625 Z M 0 -32.140625 "/></g></g></g><g fill="#ffa0d9" fill-opacity="1"><g transform="translate(74.05907, 313.478298)"><g><path d="M 15.078125 -11.5625 L 18.125 -19.578125 L 21.15625 -11.5625 Z M 12.734375 -32.140625 L 0 0 L 10.71875 0 L 11.90625 -3.171875 L 24.3125 -3.171875 L 25.53125 0 L 35.796875 0 L 23.515625 -32.140625 Z M 12.734375 -32.140625 "/></g></g></g><g fill="#ffa0d9" fill-opacity="1"><g transform="translate(110.966345, 313.478298)"><g><path d="M 27.015625 -20.1875 C 27.015625 -23.46875 25.859375 -26.269531 23.546875 -28.59375 C 21.242188 -30.925781 18.453125 -32.109375 15.171875 -32.140625 L 0 -32.140625 L 0 0 L 8.9375 0 L 8.9375 -5.75 L 14.234375 0 L 37.4375 0 L 37.4375 -8.9375 L 19.9375 -8.9375 C 22.050781 -10.101562 23.753906 -11.65625 25.046875 -13.59375 C 26.359375 -15.59375 27.015625 -17.789062 27.015625 -20.1875 Z M 8.9375 -17.515625 L 8.9375 -21.90625 L 14.375 -21.90625 C 14.976562 -21.90625 15.492188 -21.691406 15.921875 -21.265625 C 16.347656 -20.835938 16.5625 -20.320312 16.5625 -19.71875 C 16.5625 -19.113281 16.347656 -18.597656 15.921875 -18.171875 C 15.492188 -17.734375 14.976562 -17.515625 14.375 -17.515625 Z M 8.9375 -17.515625 "/></g></g></g><g fill="#ffa0d9" fill-opacity="1"><g transform="translate(139.090399, 313.478298)"><g><path d="M 0 -32.140625 L 0 -23.21875 L 8.25 -23.21875 L 8.25 0 L 17.1875 0 L 17.1875 -23.21875 L 25.4375 -23.21875 L 25.4375 -32.140625 Z M 0 -32.140625 "/></g></g></g><g fill="#ffa0d9" fill-opacity="1"><g transform="translate(165.639683, 313.478298)"><g><path d="M 18.5 -20.53125 L 8.9375 -20.53125 L 8.9375 -32.140625 L 0 -32.140625 L 0 0 L 8.9375 0 L 8.9375 -11.59375 L 18.5 -11.59375 L 18.5 0 L 27.40625 0 L 27.40625 -32.140625 L 18.5 -32.140625 Z M 18.5 -20.53125 "/></g></g></g><g fill="#ffa0d9" fill-opacity="1"><g transform="translate(194.162975, 313.478298)"><g><path d="M 21.6875 -23.21875 L 21.6875 -32.140625 L 7.78125 -32.140625 C 5.6875 -32.140625 3.890625 -31.335938 2.390625 -29.734375 C 0.910156 -28.160156 0.171875 -26.285156 0.171875 -24.109375 C 0.171875 -22.347656 0.644531 -20.890625 1.59375 -19.734375 L 11.953125 -8.9375 L 0 -8.9375 L 0 0 L 14.5 0 C 16.582031 0 18.378906 -0.796875 19.890625 -2.390625 C 21.390625 -3.992188 22.140625 -5.875 22.140625 -8.03125 C 22.140625 -9.550781 21.671875 -11 20.734375 -12.375 C 13.878906 -19.519531 10.410156 -23.132812 10.328125 -23.21875 Z M 21.6875 -23.21875 "/></g></g></g><g fill="#ffa0d9" fill-opacity="1"><g transform="translate(217.407461, 313.478298)"><g><path d="M 0 -32.140625 L 0 -23.21875 L 8.25 -23.21875 L 8.25 0 L 17.1875 0 L 17.1875 -23.21875 L 25.4375 -23.21875 L 25.4375 -32.140625 Z M 0 -32.140625 "/></g></g></g><g fill="#ffa0d9" fill-opacity="1"><g transform="translate(243.956746, 313.478298)"><g><path d="M 16.078125 -8.9375 C 14.097656 -8.9375 12.410156 -9.628906 11.015625 -11.015625 C 9.617188 -12.410156 8.921875 -14.097656 8.921875 -16.078125 C 8.921875 -18.054688 9.609375 -19.742188 10.984375 -21.140625 C 12.367188 -22.523438 14.066406 -23.21875 16.078125 -23.21875 L 18.515625 -23.21875 C 20.523438 -23.21875 22.226562 -22.523438 23.625 -21.140625 C 25 -19.742188 25.6875 -18.054688 25.6875 -16.078125 C 25.6875 -14.097656 24.984375 -12.410156 23.578125 -11.015625 C 22.179688 -9.628906 20.492188 -8.9375 18.515625 -8.9375 Z M 16.078125 -32.140625 C 11.628906 -32.140625 7.835938 -30.570312 4.703125 -27.4375 C 1.566406 -24.300781 0 -20.515625 0 -16.078125 C 0 -11.628906 1.566406 -7.835938 4.703125 -4.703125 C 7.835938 -1.566406 11.628906 0 16.078125 0 L 18.515625 0 C 22.960938 0 26.753906 -1.566406 29.890625 -4.703125 C 33.023438 -7.835938 34.59375 -11.628906 34.59375 -16.078125 C 34.59375 -20.515625 33.023438 -24.300781 29.890625 -27.4375 C 26.753906 -30.570312 22.960938 -32.140625 18.515625 -32.140625 Z M 16.078125 -32.140625 "/></g></g></g><g fill="#ffa0d9" fill-opacity="1"><g transform="translate(279.66631, 313.478298)"><g><path d="M 27.015625 -20.1875 C 27.015625 -23.46875 25.859375 -26.269531 23.546875 -28.59375 C 21.242188 -30.925781 18.453125 -32.109375 15.171875 -32.140625 L 0 -32.140625 L 0 0 L 8.9375 0 L 8.9375 -5.75 C 9.125 -5.507812 9.320312 -5.28125 9.53125 -5.0625 C 12.664062 -1.6875 17.378906 0 23.671875 0 L 26.34375 0 L 26.34375 -8.9375 L 23.671875 -8.9375 C 22.273438 -8.9375 21.03125 -9.046875 19.9375 -9.265625 C 22.050781 -10.210938 23.753906 -11.65625 25.046875 -13.59375 C 26.359375 -15.59375 27.015625 -17.789062 27.015625 -20.1875 Z M 8.9375 -17.515625 L 8.9375 -21.90625 L 14.375 -21.90625 C 14.976562 -21.90625 15.492188 -21.691406 15.921875 -21.265625 C 16.347656 -20.835938 16.5625 -20.320312 16.5625 -19.71875 C 16.5625 -19.113281 16.347656 -18.597656 15.921875 -18.171875 C 15.492188 -17.734375 14.976562 -17.515625 14.375 -17.515625 Z M 8.9375 -17.515625 "/></g></g></g><g fill="#ffa0d9" fill-opacity="1"><g transform="translate(307.790363, 313.478298)"><g><path d="M 0 -32.140625 L 0 0 L 23.28125 0 L 23.28125 -8.9375 L 8.9375 -8.9375 L 8.9375 -11.59375 L 23.28125 -11.59375 L 23.28125 -20.53125 L 8.9375 -20.53125 L 8.9375 -23.21875 L 23.28125 -23.21875 L 23.28125 -32.140625 Z M 0 -32.140625 "/></g></g></g></svg>